HIERARCHY
ROOT Hips
{
	OFFSET 0.000000 0.000000 0.000000 
	CHANNELS 6 Xposition Yposition Zposition Zrotation Yrotation Xrotation
	JOINT LeftUpLeg
	{
		OFFSET 1.363060 -1.794630 0.839290 
		CHANNELS 3 Zrotation Yrotation Xrotation
		JOINT LeftLeg
		{
			OFFSET 2.448110 -6.726130 0.000000 
			CHANNELS 3 Zrotation Yrotation Xrotation
			JOINT LeftFoot
			{
				OFFSET 2.562200 -7.039590 0.000000 
				CHANNELS 3 Zrotation Yrotation Xrotation
				JOINT LeftToeBase
				{
					OFFSET 0.157640 -0.433110 2.322550 
					CHANNELS 3 Zrotation Yrotation Xrotation
					End Site
					{
						OFFSET 0.000000 0.000000 0.000000 
					}
				}
			}
		}
	}
	JOINT RightUpLeg
	{
		OFFSET -1.305520 -1.794630 0.839290 
		CHANNELS 3 Zrotation Yrotation Xrotation
		JOINT RightLeg
		{
			OFFSET -2.542530 -6.985550 0.000000 
			CHANNELS 3 Zrotation Yrotation Xrotation
			JOINT RightFoot
			{
				OFFSET -2.568260 -7.056230 0.000000 
				CHANNELS 3 Zrotation Yrotation Xrotation
				JOINT RightToeBase
				{
					OFFSET -0.164730 -0.452590 2.363150 
					CHANNELS 3 Zrotation Yrotation Xrotation
					End Site
					{
						OFFSET 0.000000 0.000000 0.000000 
					}
				}
			}
		}
	}
	JOINT Spine
	{
		OFFSET 0.028270 2.035590 -0.193380 
		CHANNELS 3 Zrotation Yrotation Xrotation
		JOINT Spine1
		{
			OFFSET 0.056720 2.048850 -0.042750 
			CHANNELS 3 Zrotation Yrotation Xrotation
			JOINT Neck1
			{
				OFFSET -0.054170 1.746240 0.172020 
				CHANNELS 3 Zrotation Yrotation Xrotation
				JOINT Head
				{
					OFFSET 0.104070 1.761360 -0.123970 
					CHANNELS 3 Zrotation Yrotation Xrotation
					End Site
					{
						OFFSET 0.000000 0.000000 0.000000 
					}
				}
			}
			JOINT LeftArm
			{
				OFFSET 3.362410 1.200890 -0.311210 
				CHANNELS 3 Zrotation Yrotation Xrotation
				JOINT LeftForeArm
				{
					OFFSET 4.983000 -0.000000 -0.000000 
					CHANNELS 3 Zrotation Yrotation Xrotation
					JOINT LeftHand
					{
						OFFSET 3.483560 -0.000000 -0.000000 
						CHANNELS 3 Zrotation Yrotation Xrotation
						JOINT LeftHandIndex1
						{
							OFFSET 0.715260 -0.000000 -0.000000 
							CHANNELS 3 Zrotation Yrotation Xrotation
							End Site
							{
								OFFSET 0.000000 0.000000 0.000000 
							}
						}
					}
				}
			}
			JOINT RightArm
			{
				OFFSET -3.136600 1.374050 -0.404650 
				CHANNELS 3 Zrotation Yrotation Xrotation
				JOINT RightForeArm
				{
					OFFSET -5.241900 -0.000000 -0.000000 
					CHANNELS 3 Zrotation Yrotation Xrotation
					JOINT RightHand
					{
						OFFSET -3.444170 -0.000000 -0.000000 
						CHANNELS 3 Zrotation Yrotation Xrotation
						JOINT RightHandIndex1
						{
							OFFSET -0.622530 -0.000000 -0.000000 
							CHANNELS 3 Zrotation Yrotation Xrotation
							End Site
							{
								OFFSET 0.000000 0.000000 0.000000 
							}
						}
					}
				}
			}
		}
	}
}
MOTION
Frames: 12
Frame Time: 0.041667
14.241567 14.026076 -27.020964 -5.615453 8.018562 -33.703329 24.775025 11.418089 -13.669656 -50.692881 14.886568 2.600644 21.190026 29.262029 65.043488 0.000000 0.000000 0.000000 -22.855237 -17.961369 -27.678964 48.682839 -11.602331 9.139445 -25.600269 -9.798129 73.874318 -0.180800 2.738700 -7.552000 13.646546 -30.708643 29.474690 -5.787075 6.058751 -12.666395 2.432943 26.628985 -1.787991 -14.504400 4.733200 -10.010100 -47.994939 10.137195 2.259543 123.091836 -60.475366 -106.706740 9.192241 -4.932931 -28.417292 -7.125000 0.000000 0.000000 60.023024 -11.384877 14.810814 -92.932055 66.951236 -94.598244 0.971747 0.933185 29.746362 7.125000 0.000000 0.000000 
14.243512 14.034968 -27.017074 -4.970487 7.388068 -33.659640 24.754460 11.733146 -13.836478 -50.498941 14.328243 2.822173 21.309086 29.342879 65.365386 0.000000 0.000000 0.000000 -22.929932 -17.669585 -27.203204 48.878189 -11.760582 8.419154 -25.727996 -9.099980 73.925317 -0.378200 3.949700 -10.935300 10.847247 -29.658738 30.707137 -4.911046 5.127165 -12.614083 2.552225 26.453613 -1.997200 -14.761200 4.607300 -10.329400 -49.591695 9.628300 3.527155 123.904595 -60.215006 -106.936009 9.316719 -5.130285 -28.654158 -7.125000 0.000000 0.000000 61.998847 -12.778917 14.909179 -93.948017 67.485544 -95.058116 1.106811 1.092261 29.290222 7.125000 0.000000 0.000000 
14.244346 14.048862 -27.021658 -4.162118 6.870913 -33.599523 24.771899 11.871592 -13.943739 -50.397343 13.835256 2.771585 21.396642 29.471121 65.728298 0.000000 0.000000 0.000000 -23.156182 -17.393649 -26.864792 48.959027 -11.876460 8.045724 -25.831607 -8.508418 73.949271 -0.488200 4.480400 -12.432300 7.446663 -29.241132 31.300033 -3.771835 4.182290 -12.351475 2.789782 26.367786 -2.123636 -14.821100 4.594100 -10.510600 -51.590899 9.136749 4.642506 125.372288 -59.418397 -107.281180 9.279459 -5.273064 -29.199280 -7.125000 0.000000 0.000000 64.259240 -14.069698 15.091995 -95.262332 67.953212 -95.528645 1.208322 1.263418 28.847200 7.125000 0.000000 0.000000 
14.233508 14.047889 -27.019574 -3.275703 6.678420 -33.530292 24.658000 12.073067 -14.106405 -50.411060 13.413546 2.350652 21.420932 29.687935 66.192855 0.000000 0.000000 0.000000 -23.530272 -16.857085 -26.327171 49.150875 -11.919379 7.893736 -25.710526 -8.800112 73.768284 -0.350500 3.803700 -10.525100 4.086190 -28.687229 31.705341 -2.558503 2.990340 -12.082383 2.969677 26.342601 -2.209284 -14.841300 4.624900 -10.583700 -53.238960 8.588782 5.169938 126.371559 -58.904337 -107.532446 9.260021 -5.343816 -29.726168 -7.125000 0.000000 0.000000 66.109097 -15.517451 15.408073 -97.069964 68.185244 -96.247200 1.082372 1.441165 28.510005 7.125000 0.000000 0.000000 
14.222949 14.041915 -27.006098 -2.508943 6.169819 -33.488477 24.573096 12.202506 -14.079261 -50.341325 13.057287 2.189869 21.486682 29.886727 66.512502 0.000000 0.000000 0.000000 -23.642395 -16.500556 -26.203119 49.350143 -11.943083 7.841888 -25.469254 -9.327835 73.587969 -0.237600 3.137200 -8.661000 0.661538 -27.704344 32.065976 -1.660403 1.799589 -11.851576 3.096889 26.132737 -2.238264 -14.939700 4.575800 -10.673000 -54.265895 7.890200 5.434953 126.639732 -58.866995 -107.696376 9.234865 -5.243035 -30.130225 -7.125000 0.000000 0.000000 67.756261 -17.265391 15.515060 -98.553261 68.501343 -96.861645 0.888387 1.543220 28.306015 7.125000 0.000000 0.000000 
14.224200 14.042748 -26.997483 -1.746272 5.478638 -33.344610 24.554053 12.265857 -14.131429 -50.099682 12.706760 2.368586 21.600991 29.960634 66.709887 0.000000 0.000000 0.000000 -23.653495 -16.579132 -26.483040 49.330161 -12.132890 7.797765 -25.416802 -9.088712 73.533297 -0.363700 3.873800 -10.722000 -3.244376 -27.468352 31.622640 -0.905224 0.861112 -11.287250 3.367087 26.077324 -2.232862 -15.138000 4.533700 -10.647900 -55.738952 7.285247 6.380305 128.377994 -57.809218 -108.022059 9.038138 -5.160847 -30.872438 -7.125000 0.000000 0.000000 70.250514 -18.597859 15.652325 -99.978045 68.732067 -97.206643 0.891538 1.694727 28.051576 7.125000 0.000000 0.000000 
14.222116 14.050251 -26.993176 -1.049426 4.878507 -33.207283 24.545600 12.397206 -14.325892 -49.829856 12.298795 2.706420 21.714291 29.972671 66.888519 0.000000 0.000000 0.000000 -23.692442 -16.672528 -26.507362 49.263079 -12.396840 7.559870 -25.503164 -8.348382 73.560144 -0.732000 5.466100 -15.242900 -6.753500 -27.033585 31.051276 -0.187587 0.075475 -10.881504 3.637592 26.136043 -2.174385 -15.291900 4.559800 -10.714500 -56.700829 6.932413 7.363869 130.174950 -56.576684 -108.450171 8.741338 -5.077799 -31.760476 -7.125000 0.000000 0.000000 72.237897 -19.921533 15.828897 -101.193409 68.898434 -97.510502 0.874139 1.851531 27.724717 7.125000 0.000000 0.000000 
14.216836 14.064978 -26.989564 -1.556005 4.407128 -33.340335 24.706232 12.443342 -14.138175 -49.510725 12.117133 3.890227 21.836132 29.798469 66.519611 0.000000 0.000000 0.000000 -23.243817 -16.490672 -26.431032 49.663308 -12.236559 6.737015 -25.440451 -9.219611 73.574082 -0.503300 4.548100 -12.623900 -6.010694 -26.637559 31.567593 -0.724681 0.498068 -11.299186 3.597399 26.157049 -2.011131 -15.273400 4.631600 -10.960300 -55.889659 6.799306 7.139763 130.211997 -56.347874 -108.714888 8.641555 -4.848648 -32.240162 -7.125000 0.000000 0.000000 71.904210 -20.859789 15.727712 -101.680105 68.857575 -97.897289 0.683065 1.902059 27.454286 7.125000 0.000000 0.000000 
14.213640 14.078872 -26.989703 -1.495514 3.934339 -33.403207 24.764994 12.530186 -14.180608 -49.201848 11.856896 4.600107 21.930002 29.705166 66.434149 0.000000 0.000000 0.000000 -23.069301 -16.319391 -26.404262 49.880149 -12.237251 6.217866 -25.444864 -9.136543 73.652355 -0.640100 5.118600 -14.247000 -7.538823 -26.525361 31.250812 -0.656939 0.395798 -11.141212 3.775171 26.018416 -1.898951 -15.268100 4.647800 -11.080000 -56.415705 6.441796 7.673833 131.809218 -55.219879 -109.034345 8.453958 -4.700453 -32.909201 -7.125000 0.000000 0.000000 73.170412 -22.067309 15.839351 -103.112986 68.650233 -98.360794 0.560421 1.923718 27.380489 7.125000 0.000000 0.000000 
14.207388 14.079983 -26.984840 -0.576223 3.616400 -33.337914 24.547198 12.836295 -14.550101 -49.024505 11.468654 4.472464 21.969863 29.810425 66.837189 0.000000 0.000000 0.000000 -23.244862 -16.254192 -26.305483 49.834269 -12.537449 6.423470 -25.397692 -8.985049 73.442696 -0.546200 4.734900 -13.153900 -11.771877 -25.695096 30.172800 0.265068 -0.740343 -10.406976 4.079310 25.978470 -1.826521 -15.351600 4.678400 -11.013700 -57.329247 5.864472 8.677663 134.197120 -53.592287 -109.484000 8.135837 -4.748871 -34.183295 -7.125000 0.000000 0.000000 75.283613 -23.495976 16.249749 -105.136642 68.284311 -98.843894 0.455535 2.042618 27.360346 7.125000 0.000000 0.000000 
14.199469 14.075260 -26.972058 -0.173404 3.538242 -33.194558 24.345747 13.237854 -14.882643 -48.823311 11.227315 4.533029 21.983935 29.877954 67.087459 0.000000 0.000000 0.000000 -23.150233 -16.642221 -26.656830 49.619347 -12.842579 6.728220 -25.377300 -8.327910 73.408239 -0.641100 5.122400 -14.258000 -13.729353 -24.919594 29.701453 0.668955 -1.281761 -9.996053 4.229671 26.078514 -1.683646 -15.340200 4.781100 -11.002100 -57.395252 5.326910 9.066951 135.472192 -52.619102 -109.869483 7.893083 -4.755752 -35.498348 -7.125000 0.000000 0.000000 75.951432 -24.403740 16.508335 -106.249026 68.047960 -99.221251 0.465611 2.345093 27.391238 7.125000 0.000000 0.000000 
14.188493 14.076649 -26.963444 0.300748 3.474845 -32.989668 24.022984 13.779673 -15.430287 -48.574503 11.009247 4.617162 21.995882 29.896557 67.340669 0.000000 0.000000 0.000000 -23.164426 -16.575451 -26.429863 49.736473 -13.083115 6.492824 -25.235093 -8.723865 73.167662 -0.399100 4.055800 -11.233800 -15.924298 -23.637996 29.294514 1.222277 -2.047688 -9.786542 4.359300 26.168565 -1.542308 -15.282700 4.897900 -10.982100 -57.149204 4.873804 9.038981 136.003053 -52.151014 -110.267343 7.527334 -4.626138 -36.814380 -7.125000 0.000000 0.000000 76.134372 -25.464372 16.591813 -106.439120 68.408937 -99.190533 0.224059 1.978557 27.830469 7.125000 0.000000 0.000000 
